# xmcd
#
# Track frame offsets: 
#        150
#        28517
#        60235
#        103184
#        154743
#        179803
#        213436
#        258472
#
# Disc length: 3773 seconds
#
# Revision: 3
# Processed by: cddbd v1.5.2PL0 Copyright (c) Steve Scherf et al.
# Submitted via: ExactAudioCopyFreeDBPlugin 1.0
#
DISCID=6c0ebb08
DTITLE=Various Artist - A Tom Moulton Mix [Soul Jazz Records]
DYEAR=2006
DGENRE=Soul
TTITLE0=Andrea True Connection - More, More, More
TTITLE1=The Detroit Emeralds - Feel the Need in Me
TTITLE2=Orlando Riva Sound - Moonboots
TTITLE3=M.F.S.B. - Love is the Message
TTITLE4=Udell - Won't You Try
TTITLE5=Grace Jones - La Vie en Rose
TTITLE6=Isaac Hayes - Moonlight Loving (Ménage à Trois)
TTITLE7=The Lover - Lip Service
EXTD=
EXTT0=
EXTT1=
EXTT2=
EXTT3=
EXTT4=
EXTT5=
EXTT6=
EXTT7=
PLAYORDER=
